<svg width="100%" height="100%" viewBox="0 0 100 100" fill="none" xmlns="http://www.w3.org/2000/svg">
<path d="M50 0C22.3858 0 0 22.3858 0 50C0 77.6142 22.3858 100 50 100C77.6142 100 100 77.6142 100 50C100 22.3858 77.6142 0 50 0ZM50 10C72.0914 10 90 27.9086 90 50C90 72.0914 72.0914 90 50 90C27.9086 90 10 72.0914 10 50C10 27.9086 27.9086 10 50 10ZM50 20C33.4315 20 20 33.4315 20 50C20 66.5685 33.4315 80 50 80C66.5685 80 80 66.5685 80 50C80 33.4315 66.5685 20 50 20ZM50 30C44.4772 30 40 34.4772 40 40C40 45.5228 44.4772 50 50 50C55.5228 50 60 45.5228 60 40C60 34.4772 55.5228 30 50 30ZM50 60C44.4772 60 40 64.4772 40 70C40 75.5228 44.4772 80 50 80C55.5228 80 60 75.5228 60 70C60 64.4772 55.5228 60 50 60Z" fill="#002F5F"/>
</svg>